PathFileType	4	(X/Y/Z)	C:/Users/opensim2020/Desktop/walking_exp_matlab/subject06_walking13_straight_03.trc	
DataRate	CameraRate	NumFrames	NumMarkers	Units	OrigDataRate	OrigDataStartFrame	OrigNumFrames	
100.00	100.00	6	50	mm	100.00	2250	172	
Frame#	Time	LFHD			RFHD			LBHD			RBHD			C7			T10			CLAV			STRN			RBAK			LSHO			LUPA			LELB			LFRM			LWRA			LWRB			LFIN			RSHO			RUPA			RELB			RFRM			RWRA			RWRB			RFIN			LASI			RASI			LPSI			RPSI			LTHI			LKNE			LTIB			LANK			LHEE			LTOE			RTHI			RKNE			RTIB			RANK			RHEE			RTOE			*39			*40			*41			*42			*43			*44			*45			*46			*47			*48			*49			
		X1	Y1	Z1	X2	Y2	Z2	X3	Y3	Z3	X4	Y4	Z4	X5	Y5	Z5	X6	Y6	Z6	X7	Y7	Z7	X8	Y8	Z8	X9	Y9	Z9	X10	Y10	Z10	X11	Y11	Z11	X12	Y12	Z12	X13	Y13	Z13	X14	Y14	Z14	X15	Y15	Z15	X16	Y16	Z16	X17	Y17	Z17	X18	Y18	Z18	X19	Y19	Z19	X20	Y20	Z20	X21	Y21	Z21	X22	Y22	Z22	X23	Y23	Z23	X24	Y24	Z24	X25	Y25	Z25	X26	Y26	Z26	X27	Y27	Z27	X28	Y28	Z28	X29	Y29	Z29	X30	Y30	Z30	X31	Y31	Z31	X32	Y32	Z32	X33	Y33	Z33	X34	Y34	Z34	X35	Y35	Z35	X36	Y36	Z36	X37	Y37	Z37	X38	Y38	Z38	X39	Y39	Z39	X40	Y40	Z40	X41	Y41	Z41	X42	Y42	Z42	X43	Y43	Z43	X44	Y44	Z44	X45	Y45	Z45	X46	Y46	Z46	X47	Y47	Z47	X48	Y48	Z48	X49	Y49	Z49	X50	Y50	Z50	

65	0.640	-1050.83203	-60.80251	1644.98572	-919.93243	-73.71135	1631.44189	-1065.50195	-195.07077	1597.11084	-936.92902	-206.26793	1588.39441	-1007.51593	-207.94444	1437.36609	-995.67938	-254.61963	1109.03125	-1003.19348	-99.52538	1356.77600	-1006.70819	-63.36861	1182.18323	-922.96686	-288.65930	1270.09766	-1167.08667	-151.33630	1389.49329	-1232.16040	-208.26222	1196.40723	-1237.77185	-250.39075	1091.28967	-1261.91089	-273.52017	942.69012	-1227.73389	-240.82599	814.11249	-1257.53979	-305.15283	828.12799	-1259.28003	-291.53412	737.43115	-845.10022	-149.37416	1392.51440	-743.52698	-146.33058	1200.68945	-718.74866	-95.77543	1091.89929	-700.57611	-15.36252	1005.45599	-737.74207	114.98190	934.12787	-693.95172	75.48623	903.13629	-692.44409	151.62152	870.31165	-1101.77380	-74.57130	951.00354	-883.54724	-83.37988	951.17358	-1083.19226	-235.26068	971.62085	-914.12549	-233.99007	976.79077	-1180.16699	-84.62023	638.67078	-1152.30530	-28.22453	486.02768	-1148.97986	20.94081	236.64792	-1116.08398	89.10729	74.71975	-1064.55469	63.47402	49.23899	-1128.89709	235.62080	90.38840	-844.10889	-174.48341	617.92621	-867.15729	-195.39157	492.71069	-877.74982	-320.50089	250.40671	-932.39795	-385.94623	77.01729	-977.62439	-430.42542	60.30892	-929.74304	-239.57643	30.04302	-1000.56158	-164.19911	1686.90320																														 
66	0.650	-1051.70789	-50.50370	1643.28333	-920.78387	-63.33688	1630.02197	-1066.29810	-184.68962	1595.59766	-937.78931	-195.88133	1586.98975	-1008.19562	-197.52261	1435.70752	-996.32214	-243.77173	1107.32336	-1003.78943	-88.96030	1355.32581	-1007.11084	-52.37295	1180.88696	-923.69775	-278.21692	1268.41528	-1167.75208	-141.03557	1387.71985	-1232.35681	-199.27486	1195.09839	-1237.84473	-242.18675	1090.22253	-1261.92432	-266.85458	941.92419	-1228.42542	-234.40033	813.11047	-1257.15466	-299.21573	827.45056	-1259.46838	-286.13535	736.78699	-845.71271	-139.22440	1390.85254	-744.24316	-135.78825	1198.95898	-719.50885	-84.62988	1090.46924	-701.17664	-3.76370	1004.57025	-738.11768	127.18383	934.41223	-694.73273	87.66135	902.86121	-692.98657	164.22820	870.99652	-1102.15454	-63.50278	949.73547	-883.97418	-72.74211	949.58899	-1084.46497	-224.04128	970.04932	-915.41882	-223.32207	975.03314	-1180.24683	-72.60798	637.06207	-1151.84338	-17.57956	484.55063	-1147.94604	33.37794	235.40257	-1115.02771	103.51471	74.21175	-1063.31824	78.37247	48.72480	-1128.36914	250.25189	90.96378	-844.61066	-165.42857	616.82458	-867.42017	-186.82744	491.61624	-877.72357	-316.35913	251.33817	-931.72723	-385.02921	78.95578	-976.85815	-429.81152	63.04052	-929.66180	-239.43091	30.01556	-1001.42822	-153.82008	1685.39905																														 
67	0.660	-1052.56860	-39.93837	1642.11511	-921.66449	-52.88285	1628.73474	-1067.21558	-174.23816	1594.25354	-938.65826	-185.37390	1585.68652	-1008.96429	-187.00577	1434.21008	-997.03247	-232.85286	1105.73474	-1004.38416	-78.23882	1354.05334	-1007.53699	-41.42855	1179.64331	-924.62286	-267.85269	1266.74854	-1168.46338	-130.57773	1386.02490	-1232.65369	-189.73009	1193.76147	-1237.80566	-233.53856	1089.17822	-1262.02563	-259.35812	941.06757	-1229.04858	-227.15627	812.08990	-1256.87781	-292.55164	826.81476	-1259.78638	-279.96640	736.07977	-846.32275	-129.14970	1389.32654	-745.16205	-125.20405	1197.31592	-720.38818	-73.63036	1089.06189	-701.91656	7.50761	1003.54144	-738.59497	138.89366	934.29736	-695.47247	99.52224	902.36017	-693.07788	176.16699	871.27740	-1102.74683	-52.26660	948.61078	-884.52344	-61.88918	948.13141	-1085.85376	-212.59799	968.61328	-916.81024	-212.55179	973.44067	-1180.11914	-60.45192	635.56213	-1151.36206	-6.32332	483.45685	-1146.91968	44.92180	234.14618	-1113.71021	115.63332	73.05323	-1062.02429	90.72584	47.68831	-1127.39514	262.40115	90.16022	-845.33319	-155.91100	615.90747	-867.68689	-178.15573	490.71689	-877.51239	-311.61670	252.43605	-930.81335	-383.86130	81.35044	-975.85547	-429.03677	66.29593	-929.60999	-239.32162	29.89732	-1002.41498	-143.39029	1684.10266																														 
68	0.670	-1053.59790	-29.50090	1640.75891	-922.61938	-42.43136	1627.66479	-1068.19971	-163.67639	1592.98633	-939.62616	-174.94322	1584.56641	-1009.80524	-176.35150	1432.93311	-997.81799	-221.82852	1104.30396	-1004.99011	-67.49477	1352.89197	-1008.03259	-30.32693	1178.60242	-925.62555	-257.12415	1265.31982	-1169.21606	-119.77286	1384.48816	-1232.95239	-179.66824	1192.42578	-1238.03955	-224.09584	1088.06799	-1262.15491	-250.89294	940.17059	-1229.66101	-219.46515	810.97284	-1256.74744	-285.17413	826.13531	-1260.19006	-272.98877	735.44513	-846.97809	-119.12663	1388.00989	-746.21698	-114.92609	1195.87329	-721.49561	-62.87399	1087.78296	-702.86133	18.48124	1002.47430	-739.14960	150.19780	933.86700	-696.19006	110.75733	901.62756	-693.47632	187.82321	871.10138	-1103.58850	-40.99406	947.59448	-885.25140	-50.89418	946.85052	-1087.29016	-201.16002	967.34735	-918.31134	-201.46767	972.03802	-1180.05542	-48.27424	634.33759	-1150.96094	5.76638	482.76501	-1145.90002	55.61135	232.70598	-1112.12805	125.50419	71.42139	-1060.35681	100.34154	46.25455	-1125.62439	272.53311	87.91978	-845.87024	-145.95665	615.08807	-868.01526	-168.74947	489.86322	-877.27930	-306.34048	253.67690	-929.80841	-382.54465	84.08190	-974.62537	-428.05508	70.00932	-929.53729	-239.21902	29.76786	-1003.45203	-132.87640	1682.93054																														 
69	0.680	-1054.52771	-18.78130	1639.97278	-923.64398	-31.84476	1626.77625	-1069.22058	-153.08907	1591.85474	-940.70770	-164.44997	1583.63318	-1010.70996	-165.66505	1431.76294	-998.72040	-210.61932	1103.10889	-1005.56903	-56.65558	1351.92847	-1008.52478	-19.02988	1177.75378	-926.83160	-246.60339	1263.92151	-1170.02808	-108.89043	1383.20288	-1233.48950	-169.01205	1191.21631	-1238.33398	-213.86209	1087.00732	-1262.42212	-241.76649	939.31647	-1230.39893	-211.76596	809.72632	-1256.81665	-276.97385	825.47461	-1260.75977	-265.23880	734.83521	-847.64093	-109.08519	1386.89441	-747.39905	-104.71745	1194.54956	-722.75482	-52.25034	1086.57886	-703.94214	29.15930	1001.32825	-739.69995	161.07404	933.08698	-697.05212	121.61561	900.57001	-693.87878	198.51964	870.45990	-1104.51819	-29.56323	946.71954	-886.09003	-39.66906	945.78186	-1088.73535	-189.43317	966.19757	-919.80670	-190.25949	970.81427	-1180.02771	-35.88546	633.47614	-1150.69336	18.26170	482.35544	-1145.03760	65.46638	231.13351	-1110.22705	133.38362	69.23689	-1058.58228	107.70938	44.40641	-1123.24463	280.45523	84.45258	-846.66296	-135.50905	614.33569	-868.20959	-158.49179	488.96497	-876.93781	-300.83719	255.26015	-928.64276	-380.96051	87.30302	-973.51410	-426.92413	74.33501	-929.34076	-239.07323	29.70492	-1004.60205	-122.36249	1681.94104																														 
70	0.690	-1055.70020	-8.15996	1639.03943	-924.73608	-21.35257	1626.12769	-1070.32983	-142.42329	1590.88696	-941.79340	-153.88583	1582.86292	-1011.78333	-154.87630	1430.79956	-999.77521	-199.41841	1102.14441	-1006.26837	-45.77987	1351.15332	-1009.10620	-7.81228	1177.11951	-928.04590	-235.91124	1262.72424	-1171.03088	-97.66809	1382.28442	-1234.04407	-157.81267	1190.10315	-1238.82153	-202.92725	1086.07849	-1262.81140	-231.61708	938.54810	-1230.86292	-202.14728	808.88605	-1257.13562	-267.83688	824.93817	-1261.34302	-256.76074	734.14142	-848.44769	-99.08916	1385.97424	-748.89355	-94.67286	1193.24048	-724.18066	-41.86507	1085.50378	-705.17017	39.45564	1000.18604	-740.35388	171.40379	931.95636	-698.02917	131.83237	899.33185	-694.38226	208.82430	869.42975	-1105.61316	-17.76615	946.10321	-887.11145	-28.22709	944.99915	-1090.12769	-177.55756	965.27948	-921.35284	-178.80692	969.86017	-1180.10498	-23.31218	632.85504	-1150.49622	31.23440	482.08981	-1144.21753	74.67386	229.55121	-1108.21875	139.40793	66.68333	-1057.00171	112.90944	42.67851	-1120.10510	286.85648	79.95157	-847.44873	-124.65202	613.62665	-868.62708	-147.51160	488.27960	-876.61353	-294.89902	257.18738	-927.48975	-379.04205	91.05451	-972.14813	-425.39548	79.23699	-929.20007	-238.98734	29.68090	-1005.83008	-111.77615	1681.02722																														 
